<mxfile host="app.diagrams.net" agent="Mozilla/5.0 (Windows NT 10.0; Win64; x64) AppleWebKit/537.36 (KHTML, like Gecko) Chrome/131.0.0.0 Safari/537.36" version="25.0.1">
  <diagram name="Page-1" id="e69hQ286qsbTf7OBOCps">
    <mxGraphModel dx="672" dy="1594" grid="1" gridSize="10" guides="1" tooltips="1" connect="1" arrows="1" fold="1" page="1" pageScale="1" pageWidth="827" pageHeight="1169" math="0" shadow="0">
      <root>
        <mxCell id="0" />
        <mxCell id="1" parent="0" />
        <mxCell id="7Lcp7knfSRS6wD8ILPjS-45" value="" style="rounded=0;whiteSpace=wrap;html=1;fillColor=none;" parent="1" vertex="1">
          <mxGeometry x="330" y="-100" width="430" height="840" as="geometry" />
        </mxCell>
        <mxCell id="7Lcp7knfSRS6wD8ILPjS-1" value="Student" style="shape=umlActor;verticalLabelPosition=bottom;verticalAlign=top;html=1;" parent="1" vertex="1">
          <mxGeometry x="120" y="200" width="40" height="80" as="geometry" />
        </mxCell>
        <mxCell id="7Lcp7knfSRS6wD8ILPjS-2" value="Login" style="ellipse;whiteSpace=wrap;html=1;" parent="1" vertex="1">
          <mxGeometry x="360" y="40" width="80" height="40" as="geometry" />
        </mxCell>
        <mxCell id="7Lcp7knfSRS6wD8ILPjS-3" value="" style="endArrow=none;html=1;rounded=0;entryX=0;entryY=1;entryDx=0;entryDy=0;" parent="1" target="7Lcp7knfSRS6wD8ILPjS-2" edge="1">
          <mxGeometry width="50" height="50" relative="1" as="geometry">
            <mxPoint x="170" y="200" as="sourcePoint" />
            <mxPoint x="390" y="180" as="targetPoint" />
          </mxGeometry>
        </mxCell>
        <mxCell id="7Lcp7knfSRS6wD8ILPjS-18" value="&amp;lt;&amp;lt;initiate&amp;gt;&amp;gt;" style="edgeLabel;html=1;align=center;verticalAlign=middle;resizable=0;points=[];fontColor=default;" parent="7Lcp7knfSRS6wD8ILPjS-3" vertex="1" connectable="0">
          <mxGeometry x="0.2323" y="1" relative="1" as="geometry">
            <mxPoint as="offset" />
          </mxGeometry>
        </mxCell>
        <mxCell id="7Lcp7knfSRS6wD8ILPjS-4" value="Complete information" style="ellipse;whiteSpace=wrap;html=1;" parent="1" vertex="1">
          <mxGeometry x="360" y="120" width="80" height="40" as="geometry" />
        </mxCell>
        <mxCell id="7Lcp7knfSRS6wD8ILPjS-5" value="View offers" style="ellipse;whiteSpace=wrap;html=1;" parent="1" vertex="1">
          <mxGeometry x="360" y="200" width="80" height="40" as="geometry" />
        </mxCell>
        <mxCell id="7Lcp7knfSRS6wD8ILPjS-7" value="&amp;lt;&amp;lt;include&amp;gt;&amp;gt;" style="endArrow=open;endSize=12;dashed=1;html=1;rounded=0;exitX=1;exitY=0.5;exitDx=0;exitDy=0;entryX=1;entryY=1;entryDx=0;entryDy=0;" parent="1" source="7Lcp7knfSRS6wD8ILPjS-4" target="7Lcp7knfSRS6wD8ILPjS-2" edge="1">
          <mxGeometry width="160" relative="1" as="geometry">
            <mxPoint x="350" y="120" as="sourcePoint" />
            <mxPoint x="560" as="targetPoint" />
            <Array as="points">
              <mxPoint x="470" y="140" />
              <mxPoint x="470" y="74" />
            </Array>
          </mxGeometry>
        </mxCell>
        <mxCell id="7Lcp7knfSRS6wD8ILPjS-8" value="View offer details" style="ellipse;whiteSpace=wrap;html=1;" parent="1" vertex="1">
          <mxGeometry x="360" y="280" width="80" height="40" as="geometry" />
        </mxCell>
        <mxCell id="7Lcp7knfSRS6wD8ILPjS-9" value="&amp;lt;&amp;lt;include&amp;gt;&amp;gt;" style="endArrow=open;endSize=12;dashed=1;html=1;rounded=0;exitX=1;exitY=0.5;exitDx=0;exitDy=0;entryX=1;entryY=0.5;entryDx=0;entryDy=0;" parent="1" source="7Lcp7knfSRS6wD8ILPjS-5" target="7Lcp7knfSRS6wD8ILPjS-2" edge="1">
          <mxGeometry width="160" relative="1" as="geometry">
            <mxPoint x="520" y="190" as="sourcePoint" />
            <mxPoint x="520" y="150" as="targetPoint" />
            <Array as="points">
              <mxPoint x="520" y="220" />
              <mxPoint x="520" y="60" />
            </Array>
          </mxGeometry>
        </mxCell>
        <mxCell id="7Lcp7knfSRS6wD8ILPjS-10" value="&amp;lt;&amp;lt;include&amp;gt;&amp;gt;" style="endArrow=open;endSize=12;dashed=1;html=1;rounded=0;exitX=1;exitY=0.5;exitDx=0;exitDy=0;entryX=1;entryY=1;entryDx=0;entryDy=0;" parent="1" target="7Lcp7knfSRS6wD8ILPjS-5" edge="1">
          <mxGeometry width="160" relative="1" as="geometry">
            <mxPoint x="442" y="296" as="sourcePoint" />
            <mxPoint x="430" y="230" as="targetPoint" />
            <Array as="points">
              <mxPoint x="472" y="296" />
              <mxPoint x="472" y="234" />
            </Array>
          </mxGeometry>
        </mxCell>
        <mxCell id="7Lcp7knfSRS6wD8ILPjS-11" value="Send application" style="ellipse;whiteSpace=wrap;html=1;" parent="1" vertex="1">
          <mxGeometry x="360" y="360" width="80" height="40" as="geometry" />
        </mxCell>
        <mxCell id="7Lcp7knfSRS6wD8ILPjS-12" value="Accept meeting" style="ellipse;whiteSpace=wrap;html=1;" parent="1" vertex="1">
          <mxGeometry x="360" y="440" width="80" height="40" as="geometry" />
        </mxCell>
        <mxCell id="7Lcp7knfSRS6wD8ILPjS-13" value="&amp;lt;&amp;lt;include&amp;gt;&amp;gt;" style="endArrow=open;endSize=12;dashed=1;html=1;rounded=0;exitX=1;exitY=0.5;exitDx=0;exitDy=0;entryX=1;entryY=1;entryDx=0;entryDy=0;" parent="1" target="7Lcp7knfSRS6wD8ILPjS-8" edge="1">
          <mxGeometry width="160" relative="1" as="geometry">
            <mxPoint x="444" y="382" as="sourcePoint" />
            <mxPoint x="430" y="320" as="targetPoint" />
            <Array as="points">
              <mxPoint x="474" y="382" />
              <mxPoint x="474" y="314" />
            </Array>
          </mxGeometry>
        </mxCell>
        <mxCell id="7Lcp7knfSRS6wD8ILPjS-14" value="" style="endArrow=none;html=1;rounded=0;entryX=0;entryY=0.5;entryDx=0;entryDy=0;" parent="1" target="7Lcp7knfSRS6wD8ILPjS-4" edge="1">
          <mxGeometry width="50" height="50" relative="1" as="geometry">
            <mxPoint x="170" y="210" as="sourcePoint" />
            <mxPoint x="382" y="84" as="targetPoint" />
          </mxGeometry>
        </mxCell>
        <mxCell id="7Lcp7knfSRS6wD8ILPjS-19" value="&amp;lt;&amp;lt;initiate&amp;gt;&amp;gt;" style="edgeLabel;html=1;align=center;verticalAlign=middle;resizable=0;points=[];fontColor=default;" parent="7Lcp7knfSRS6wD8ILPjS-14" vertex="1" connectable="0">
          <mxGeometry x="0.0775" relative="1" as="geometry">
            <mxPoint as="offset" />
          </mxGeometry>
        </mxCell>
        <mxCell id="7Lcp7knfSRS6wD8ILPjS-15" value="" style="endArrow=none;html=1;rounded=0;entryX=0;entryY=0.5;entryDx=0;entryDy=0;" parent="1" target="7Lcp7knfSRS6wD8ILPjS-5" edge="1">
          <mxGeometry width="50" height="50" relative="1" as="geometry">
            <mxPoint x="170" y="220" as="sourcePoint" />
            <mxPoint x="392" y="94" as="targetPoint" />
          </mxGeometry>
        </mxCell>
        <mxCell id="7Lcp7knfSRS6wD8ILPjS-20" value="&amp;lt;&amp;lt;initiate&amp;gt;&amp;gt;" style="edgeLabel;html=1;align=center;verticalAlign=middle;resizable=0;points=[];fontColor=default;" parent="7Lcp7knfSRS6wD8ILPjS-15" vertex="1" connectable="0">
          <mxGeometry x="0.0611" y="-3" relative="1" as="geometry">
            <mxPoint as="offset" />
          </mxGeometry>
        </mxCell>
        <mxCell id="7Lcp7knfSRS6wD8ILPjS-16" value="" style="endArrow=none;html=1;rounded=0;entryX=0;entryY=0;entryDx=0;entryDy=0;" parent="1" target="7Lcp7knfSRS6wD8ILPjS-8" edge="1">
          <mxGeometry width="50" height="50" relative="1" as="geometry">
            <mxPoint x="170" y="230" as="sourcePoint" />
            <mxPoint x="402" y="104" as="targetPoint" />
          </mxGeometry>
        </mxCell>
        <mxCell id="7Lcp7knfSRS6wD8ILPjS-21" value="&amp;lt;&amp;lt;initiate&amp;gt;&amp;gt;" style="edgeLabel;html=1;align=center;verticalAlign=middle;resizable=0;points=[];fontColor=none;noLabel=1;" parent="7Lcp7knfSRS6wD8ILPjS-16" vertex="1" connectable="0">
          <mxGeometry x="0.0881" y="2" relative="1" as="geometry">
            <mxPoint as="offset" />
          </mxGeometry>
        </mxCell>
        <mxCell id="7Lcp7knfSRS6wD8ILPjS-17" value="" style="endArrow=none;html=1;rounded=0;entryX=0;entryY=0;entryDx=0;entryDy=0;" parent="1" target="7Lcp7knfSRS6wD8ILPjS-11" edge="1">
          <mxGeometry width="50" height="50" relative="1" as="geometry">
            <mxPoint x="170" y="240" as="sourcePoint" />
            <mxPoint x="412" y="114" as="targetPoint" />
          </mxGeometry>
        </mxCell>
        <mxCell id="7Lcp7knfSRS6wD8ILPjS-22" value="&amp;lt;&amp;lt;initiate&amp;gt;&amp;gt;" style="edgeLabel;html=1;align=center;verticalAlign=middle;resizable=0;points=[];fontColor=default;" parent="7Lcp7knfSRS6wD8ILPjS-17" vertex="1" connectable="0">
          <mxGeometry x="-0.0688" y="-2" relative="1" as="geometry">
            <mxPoint as="offset" />
          </mxGeometry>
        </mxCell>
        <mxCell id="7Lcp7knfSRS6wD8ILPjS-23" value="" style="endArrow=none;html=1;rounded=0;entryX=0;entryY=0;entryDx=0;entryDy=0;" parent="1" target="7Lcp7knfSRS6wD8ILPjS-12" edge="1">
          <mxGeometry width="50" height="50" relative="1" as="geometry">
            <mxPoint x="170" y="250" as="sourcePoint" />
            <mxPoint x="382" y="376" as="targetPoint" />
          </mxGeometry>
        </mxCell>
        <mxCell id="7Lcp7knfSRS6wD8ILPjS-24" value="&amp;lt;&amp;lt;initiate&amp;gt;&amp;gt;" style="edgeLabel;html=1;align=center;verticalAlign=middle;resizable=0;points=[];fontColor=default;" parent="7Lcp7knfSRS6wD8ILPjS-23" vertex="1" connectable="0">
          <mxGeometry x="-0.0688" y="-2" relative="1" as="geometry">
            <mxPoint as="offset" />
          </mxGeometry>
        </mxCell>
        <mxCell id="7Lcp7knfSRS6wD8ILPjS-25" value="Edit/Delete profile" style="ellipse;whiteSpace=wrap;html=1;" parent="1" vertex="1">
          <mxGeometry x="360" y="-40" width="80" height="40" as="geometry" />
        </mxCell>
        <mxCell id="7Lcp7knfSRS6wD8ILPjS-26" value="" style="endArrow=none;html=1;rounded=0;entryX=0.5;entryY=1;entryDx=0;entryDy=0;" parent="1" target="7Lcp7knfSRS6wD8ILPjS-25" edge="1">
          <mxGeometry width="50" height="50" relative="1" as="geometry">
            <mxPoint x="170" y="190" as="sourcePoint" />
            <mxPoint x="382" y="84" as="targetPoint" />
          </mxGeometry>
        </mxCell>
        <mxCell id="7Lcp7knfSRS6wD8ILPjS-27" value="&amp;lt;&amp;lt;initiate&amp;gt;&amp;gt;" style="edgeLabel;html=1;align=center;verticalAlign=middle;resizable=0;points=[];fontColor=default;" parent="7Lcp7knfSRS6wD8ILPjS-26" vertex="1" connectable="0">
          <mxGeometry x="0.2323" y="1" relative="1" as="geometry">
            <mxPoint as="offset" />
          </mxGeometry>
        </mxCell>
        <mxCell id="7Lcp7knfSRS6wD8ILPjS-28" value="&amp;lt;&amp;lt;include&amp;gt;&amp;gt;" style="endArrow=open;endSize=12;dashed=1;html=1;rounded=0;exitX=1;exitY=0.5;exitDx=0;exitDy=0;entryX=1;entryY=0;entryDx=0;entryDy=0;" parent="1" source="7Lcp7knfSRS6wD8ILPjS-25" target="7Lcp7knfSRS6wD8ILPjS-2" edge="1">
          <mxGeometry width="160" relative="1" as="geometry">
            <mxPoint x="450" y="150" as="sourcePoint" />
            <mxPoint x="438" y="84" as="targetPoint" />
            <Array as="points">
              <mxPoint x="490" y="-20" />
              <mxPoint x="490" y="46" />
            </Array>
          </mxGeometry>
        </mxCell>
        <mxCell id="7Lcp7knfSRS6wD8ILPjS-29" value="Accept agreement" style="ellipse;whiteSpace=wrap;html=1;" parent="1" vertex="1">
          <mxGeometry x="360" y="520" width="80" height="40" as="geometry" />
        </mxCell>
        <mxCell id="7Lcp7knfSRS6wD8ILPjS-30" value="" style="endArrow=none;html=1;rounded=0;entryX=0;entryY=0;entryDx=0;entryDy=0;" parent="1" target="7Lcp7knfSRS6wD8ILPjS-29" edge="1">
          <mxGeometry width="50" height="50" relative="1" as="geometry">
            <mxPoint x="170" y="270" as="sourcePoint" />
            <mxPoint x="372" y="466" as="targetPoint" />
          </mxGeometry>
        </mxCell>
        <mxCell id="7Lcp7knfSRS6wD8ILPjS-31" value="&amp;lt;&amp;lt;initiate&amp;gt;&amp;gt;" style="edgeLabel;html=1;align=center;verticalAlign=middle;resizable=0;points=[];fontColor=default;" parent="7Lcp7knfSRS6wD8ILPjS-30" vertex="1" connectable="0">
          <mxGeometry x="-0.0688" y="-2" relative="1" as="geometry">
            <mxPoint as="offset" />
          </mxGeometry>
        </mxCell>
        <mxCell id="7Lcp7knfSRS6wD8ILPjS-33" value="File a complaint" style="ellipse;whiteSpace=wrap;html=1;" parent="1" vertex="1">
          <mxGeometry x="360" y="600" width="80" height="40" as="geometry" />
        </mxCell>
        <mxCell id="7Lcp7knfSRS6wD8ILPjS-34" value="" style="endArrow=none;html=1;rounded=0;entryX=0;entryY=0;entryDx=0;entryDy=0;" parent="1" target="7Lcp7knfSRS6wD8ILPjS-33" edge="1">
          <mxGeometry width="50" height="50" relative="1" as="geometry">
            <mxPoint x="170" y="290" as="sourcePoint" />
            <mxPoint x="352" y="566" as="targetPoint" />
          </mxGeometry>
        </mxCell>
        <mxCell id="7Lcp7knfSRS6wD8ILPjS-35" value="&amp;lt;&amp;lt;initiate&amp;gt;&amp;gt;" style="edgeLabel;html=1;align=center;verticalAlign=middle;resizable=0;points=[];fontColor=default;" parent="7Lcp7knfSRS6wD8ILPjS-34" vertex="1" connectable="0">
          <mxGeometry x="-0.0688" y="-2" relative="1" as="geometry">
            <mxPoint as="offset" />
          </mxGeometry>
        </mxCell>
        <mxCell id="7Lcp7knfSRS6wD8ILPjS-36" value="Submit a feedback" style="ellipse;whiteSpace=wrap;html=1;" parent="1" vertex="1">
          <mxGeometry x="360" y="680" width="80" height="40" as="geometry" />
        </mxCell>
        <mxCell id="7Lcp7knfSRS6wD8ILPjS-38" value="" style="endArrow=none;html=1;rounded=0;entryX=0;entryY=0;entryDx=0;entryDy=0;" parent="1" target="7Lcp7knfSRS6wD8ILPjS-36" edge="1">
          <mxGeometry width="50" height="50" relative="1" as="geometry">
            <mxPoint x="170" y="310" as="sourcePoint" />
            <mxPoint x="382" y="616" as="targetPoint" />
          </mxGeometry>
        </mxCell>
        <mxCell id="7Lcp7knfSRS6wD8ILPjS-39" value="&amp;lt;&amp;lt;initiate&amp;gt;&amp;gt;" style="edgeLabel;html=1;align=center;verticalAlign=middle;resizable=0;points=[];fontColor=default;" parent="7Lcp7knfSRS6wD8ILPjS-38" vertex="1" connectable="0">
          <mxGeometry x="-0.0688" y="-2" relative="1" as="geometry">
            <mxPoint as="offset" />
          </mxGeometry>
        </mxCell>
        <mxCell id="7Lcp7knfSRS6wD8ILPjS-40" value="&amp;lt;&amp;lt;include&amp;gt;&amp;gt;" style="endArrow=open;endSize=12;dashed=1;html=1;rounded=0;exitX=1;exitY=0.5;exitDx=0;exitDy=0;entryX=1;entryY=0.5;entryDx=0;entryDy=0;" parent="1" source="7Lcp7knfSRS6wD8ILPjS-12" target="7Lcp7knfSRS6wD8ILPjS-2" edge="1">
          <mxGeometry width="160" relative="1" as="geometry">
            <mxPoint x="450" y="230" as="sourcePoint" />
            <mxPoint x="450" y="70" as="targetPoint" />
            <Array as="points">
              <mxPoint x="560" y="460" />
              <mxPoint x="560" y="60" />
            </Array>
          </mxGeometry>
        </mxCell>
        <mxCell id="7Lcp7knfSRS6wD8ILPjS-42" value="&amp;lt;&amp;lt;include&amp;gt;&amp;gt;" style="endArrow=open;endSize=12;dashed=1;html=1;rounded=0;exitX=1;exitY=0.5;exitDx=0;exitDy=0;" parent="1" source="7Lcp7knfSRS6wD8ILPjS-29" edge="1">
          <mxGeometry width="160" relative="1" as="geometry">
            <mxPoint x="450" y="470" as="sourcePoint" />
            <mxPoint x="440" y="60" as="targetPoint" />
            <Array as="points">
              <mxPoint x="600" y="540" />
              <mxPoint x="600" y="60" />
            </Array>
          </mxGeometry>
        </mxCell>
        <mxCell id="7Lcp7knfSRS6wD8ILPjS-43" value="&amp;lt;&amp;lt;include&amp;gt;&amp;gt;" style="endArrow=open;endSize=12;dashed=1;html=1;rounded=0;exitX=1;exitY=0.5;exitDx=0;exitDy=0;" parent="1" source="7Lcp7knfSRS6wD8ILPjS-33" edge="1">
          <mxGeometry width="160" relative="1" as="geometry">
            <mxPoint x="450" y="550" as="sourcePoint" />
            <mxPoint x="440" y="60" as="targetPoint" />
            <Array as="points">
              <mxPoint x="640" y="620" />
              <mxPoint x="640" y="60" />
            </Array>
          </mxGeometry>
        </mxCell>
        <mxCell id="7Lcp7knfSRS6wD8ILPjS-44" value="&amp;lt;&amp;lt;include&amp;gt;&amp;gt;" style="endArrow=open;endSize=12;dashed=1;html=1;rounded=0;exitX=1;exitY=0.5;exitDx=0;exitDy=0;" parent="1" source="7Lcp7knfSRS6wD8ILPjS-36" edge="1">
          <mxGeometry width="160" relative="1" as="geometry">
            <mxPoint x="460" y="560" as="sourcePoint" />
            <mxPoint x="440" y="60" as="targetPoint" />
            <Array as="points">
              <mxPoint x="680" y="700" />
              <mxPoint x="680" y="60" />
            </Array>
          </mxGeometry>
        </mxCell>
        <mxCell id="7Lcp7knfSRS6wD8ILPjS-46" value="S&amp;amp;C" style="text;html=1;align=center;verticalAlign=middle;whiteSpace=wrap;rounded=0;fontSize=25;" parent="1" vertex="1">
          <mxGeometry x="515" y="-100" width="60" height="30" as="geometry" />
        </mxCell>
      </root>
    </mxGraphModel>
  </diagram>
</mxfile>
